<mxfile host="app.diagrams.net" modified="2022-11-15T12:44:02.271Z" agent="5.0 (X11)" etag="1auqzhfVWHZ-6k5uhZFd" version="20.5.3" type="github">
  <diagram id="3YCtQ4OSh3BetmHSAnF9" name="Page-1">
    <mxGraphModel dx="2249" dy="727" grid="1" gridSize="10" guides="1" tooltips="1" connect="1" arrows="1" fold="1" page="1" pageScale="1" pageWidth="827" pageHeight="1169" math="0" shadow="0">
      <root>
        <mxCell id="0" />
        <mxCell id="1" parent="0" />
        <mxCell id="SKCPG1EAlzLYbSOb6UeY-1" value="RDV" style="swimlane;fontStyle=0;childLayout=stackLayout;horizontal=1;startSize=26;horizontalStack=0;resizeParent=1;resizeParentMax=0;resizeLast=0;collapsible=1;marginBottom=0;align=center;fontSize=14;" vertex="1" parent="1">
          <mxGeometry x="80" y="40" width="160" height="146" as="geometry" />
        </mxCell>
        <mxCell id="SKCPG1EAlzLYbSOb6UeY-2" value="id" style="text;strokeColor=none;fillColor=none;spacingLeft=4;spacingRight=4;overflow=hidden;rotatable=0;points=[[0,0.5],[1,0.5]];portConstraint=eastwest;fontSize=12;" vertex="1" parent="SKCPG1EAlzLYbSOb6UeY-1">
          <mxGeometry y="26" width="160" height="30" as="geometry" />
        </mxCell>
        <mxCell id="SKCPG1EAlzLYbSOb6UeY-3" value="date" style="text;strokeColor=none;fillColor=none;spacingLeft=4;spacingRight=4;overflow=hidden;rotatable=0;points=[[0,0.5],[1,0.5]];portConstraint=eastwest;fontSize=12;" vertex="1" parent="SKCPG1EAlzLYbSOb6UeY-1">
          <mxGeometry y="56" width="160" height="30" as="geometry" />
        </mxCell>
        <mxCell id="SKCPG1EAlzLYbSOb6UeY-4" value="heure" style="text;strokeColor=none;fillColor=none;spacingLeft=4;spacingRight=4;overflow=hidden;rotatable=0;points=[[0,0.5],[1,0.5]];portConstraint=eastwest;fontSize=12;" vertex="1" parent="SKCPG1EAlzLYbSOb6UeY-1">
          <mxGeometry y="86" width="160" height="30" as="geometry" />
        </mxCell>
        <mxCell id="SKCPG1EAlzLYbSOb6UeY-5" value="duree" style="text;strokeColor=none;fillColor=none;spacingLeft=4;spacingRight=4;overflow=hidden;rotatable=0;points=[[0,0.5],[1,0.5]];portConstraint=eastwest;fontSize=12;" vertex="1" parent="SKCPG1EAlzLYbSOb6UeY-1">
          <mxGeometry y="116" width="160" height="30" as="geometry" />
        </mxCell>
        <mxCell id="SKCPG1EAlzLYbSOb6UeY-6" value="Medecin" style="swimlane;fontStyle=0;childLayout=stackLayout;horizontal=1;startSize=26;horizontalStack=0;resizeParent=1;resizeParentMax=0;resizeLast=0;collapsible=1;marginBottom=0;align=center;fontSize=14;" vertex="1" parent="1">
          <mxGeometry x="570" y="60" width="160" height="116" as="geometry" />
        </mxCell>
        <mxCell id="SKCPG1EAlzLYbSOb6UeY-7" value="id" style="text;strokeColor=none;fillColor=none;spacingLeft=4;spacingRight=4;overflow=hidden;rotatable=0;points=[[0,0.5],[1,0.5]];portConstraint=eastwest;fontSize=12;" vertex="1" parent="SKCPG1EAlzLYbSOb6UeY-6">
          <mxGeometry y="26" width="160" height="30" as="geometry" />
        </mxCell>
        <mxCell id="SKCPG1EAlzLYbSOb6UeY-8" value="nom" style="text;strokeColor=none;fillColor=none;spacingLeft=4;spacingRight=4;overflow=hidden;rotatable=0;points=[[0,0.5],[1,0.5]];portConstraint=eastwest;fontSize=12;" vertex="1" parent="SKCPG1EAlzLYbSOb6UeY-6">
          <mxGeometry y="56" width="160" height="30" as="geometry" />
        </mxCell>
        <mxCell id="SKCPG1EAlzLYbSOb6UeY-9" value="password" style="text;strokeColor=none;fillColor=none;spacingLeft=4;spacingRight=4;overflow=hidden;rotatable=0;points=[[0,0.5],[1,0.5]];portConstraint=eastwest;fontSize=12;" vertex="1" parent="SKCPG1EAlzLYbSOb6UeY-6">
          <mxGeometry y="86" width="160" height="30" as="geometry" />
        </mxCell>
        <mxCell id="SKCPG1EAlzLYbSOb6UeY-10" value="Assistant" style="swimlane;fontStyle=0;childLayout=stackLayout;horizontal=1;startSize=26;horizontalStack=0;resizeParent=1;resizeParentMax=0;resizeLast=0;collapsible=1;marginBottom=0;align=center;fontSize=14;" vertex="1" parent="1">
          <mxGeometry x="570" y="330" width="160" height="116" as="geometry" />
        </mxCell>
        <mxCell id="SKCPG1EAlzLYbSOb6UeY-11" value="id" style="text;strokeColor=none;fillColor=none;spacingLeft=4;spacingRight=4;overflow=hidden;rotatable=0;points=[[0,0.5],[1,0.5]];portConstraint=eastwest;fontSize=12;" vertex="1" parent="SKCPG1EAlzLYbSOb6UeY-10">
          <mxGeometry y="26" width="160" height="30" as="geometry" />
        </mxCell>
        <mxCell id="SKCPG1EAlzLYbSOb6UeY-12" value="login" style="text;strokeColor=none;fillColor=none;spacingLeft=4;spacingRight=4;overflow=hidden;rotatable=0;points=[[0,0.5],[1,0.5]];portConstraint=eastwest;fontSize=12;" vertex="1" parent="SKCPG1EAlzLYbSOb6UeY-10">
          <mxGeometry y="56" width="160" height="30" as="geometry" />
        </mxCell>
        <mxCell id="SKCPG1EAlzLYbSOb6UeY-13" value="password" style="text;strokeColor=none;fillColor=none;spacingLeft=4;spacingRight=4;overflow=hidden;rotatable=0;points=[[0,0.5],[1,0.5]];portConstraint=eastwest;fontSize=12;" vertex="1" parent="SKCPG1EAlzLYbSOb6UeY-10">
          <mxGeometry y="86" width="160" height="30" as="geometry" />
        </mxCell>
        <mxCell id="SKCPG1EAlzLYbSOb6UeY-14" value="statut" style="swimlane;fontStyle=0;childLayout=stackLayout;horizontal=1;startSize=26;horizontalStack=0;resizeParent=1;resizeParentMax=0;resizeLast=0;collapsible=1;marginBottom=0;align=center;fontSize=14;" vertex="1" parent="1">
          <mxGeometry x="90" y="345" width="160" height="86" as="geometry" />
        </mxCell>
        <mxCell id="SKCPG1EAlzLYbSOb6UeY-15" value="id" style="text;strokeColor=none;fillColor=none;spacingLeft=4;spacingRight=4;overflow=hidden;rotatable=0;points=[[0,0.5],[1,0.5]];portConstraint=eastwest;fontSize=12;" vertex="1" parent="SKCPG1EAlzLYbSOb6UeY-14">
          <mxGeometry y="26" width="160" height="30" as="geometry" />
        </mxCell>
        <mxCell id="SKCPG1EAlzLYbSOb6UeY-16" value="libelle" style="text;strokeColor=none;fillColor=none;spacingLeft=4;spacingRight=4;overflow=hidden;rotatable=0;points=[[0,0.5],[1,0.5]];portConstraint=eastwest;fontSize=12;" vertex="1" parent="SKCPG1EAlzLYbSOb6UeY-14">
          <mxGeometry y="56" width="160" height="30" as="geometry" />
        </mxCell>
        <mxCell id="SKCPG1EAlzLYbSOb6UeY-18" value="Patient" style="swimlane;fontStyle=0;childLayout=stackLayout;horizontal=1;startSize=26;horizontalStack=0;resizeParent=1;resizeParentMax=0;resizeLast=0;collapsible=1;marginBottom=0;align=center;fontSize=14;" vertex="1" parent="1">
          <mxGeometry x="-220" y="330" width="160" height="176" as="geometry" />
        </mxCell>
        <mxCell id="SKCPG1EAlzLYbSOb6UeY-19" value="id" style="text;strokeColor=none;fillColor=none;spacingLeft=4;spacingRight=4;overflow=hidden;rotatable=0;points=[[0,0.5],[1,0.5]];portConstraint=eastwest;fontSize=12;" vertex="1" parent="SKCPG1EAlzLYbSOb6UeY-18">
          <mxGeometry y="26" width="160" height="30" as="geometry" />
        </mxCell>
        <mxCell id="SKCPG1EAlzLYbSOb6UeY-20" value="nom" style="text;strokeColor=none;fillColor=none;spacingLeft=4;spacingRight=4;overflow=hidden;rotatable=0;points=[[0,0.5],[1,0.5]];portConstraint=eastwest;fontSize=12;" vertex="1" parent="SKCPG1EAlzLYbSOb6UeY-18">
          <mxGeometry y="56" width="160" height="30" as="geometry" />
        </mxCell>
        <mxCell id="SKCPG1EAlzLYbSOb6UeY-21" value="adresse" style="text;strokeColor=none;fillColor=none;spacingLeft=4;spacingRight=4;overflow=hidden;rotatable=0;points=[[0,0.5],[1,0.5]];portConstraint=eastwest;fontSize=12;" vertex="1" parent="SKCPG1EAlzLYbSOb6UeY-18">
          <mxGeometry y="86" width="160" height="30" as="geometry" />
        </mxCell>
        <mxCell id="SKCPG1EAlzLYbSOb6UeY-22" value="mail" style="text;strokeColor=none;fillColor=none;spacingLeft=4;spacingRight=4;overflow=hidden;rotatable=0;points=[[0,0.5],[1,0.5]];portConstraint=eastwest;fontSize=12;" vertex="1" parent="SKCPG1EAlzLYbSOb6UeY-18">
          <mxGeometry y="116" width="160" height="30" as="geometry" />
        </mxCell>
        <mxCell id="SKCPG1EAlzLYbSOb6UeY-23" value="password" style="text;strokeColor=none;fillColor=none;spacingLeft=4;spacingRight=4;overflow=hidden;rotatable=0;points=[[0,0.5],[1,0.5]];portConstraint=eastwest;fontSize=12;" vertex="1" parent="SKCPG1EAlzLYbSOb6UeY-18">
          <mxGeometry y="146" width="160" height="30" as="geometry" />
        </mxCell>
        <mxCell id="SKCPG1EAlzLYbSOb6UeY-24" value="indisponibilite" style="swimlane;fontStyle=0;childLayout=stackLayout;horizontal=1;startSize=26;horizontalStack=0;resizeParent=1;resizeParentMax=0;resizeLast=0;collapsible=1;marginBottom=0;align=center;fontSize=14;" vertex="1" parent="1">
          <mxGeometry x="330" y="330" width="160" height="116" as="geometry" />
        </mxCell>
        <mxCell id="SKCPG1EAlzLYbSOb6UeY-25" value="id" style="text;strokeColor=none;fillColor=none;spacingLeft=4;spacingRight=4;overflow=hidden;rotatable=0;points=[[0,0.5],[1,0.5]];portConstraint=eastwest;fontSize=12;" vertex="1" parent="SKCPG1EAlzLYbSOb6UeY-24">
          <mxGeometry y="26" width="160" height="30" as="geometry" />
        </mxCell>
        <mxCell id="SKCPG1EAlzLYbSOb6UeY-26" value="date" style="text;strokeColor=none;fillColor=none;spacingLeft=4;spacingRight=4;overflow=hidden;rotatable=0;points=[[0,0.5],[1,0.5]];portConstraint=eastwest;fontSize=12;" vertex="1" parent="SKCPG1EAlzLYbSOb6UeY-24">
          <mxGeometry y="56" width="160" height="30" as="geometry" />
        </mxCell>
        <mxCell id="SKCPG1EAlzLYbSOb6UeY-27" value="libelle" style="text;strokeColor=none;fillColor=none;spacingLeft=4;spacingRight=4;overflow=hidden;rotatable=0;points=[[0,0.5],[1,0.5]];portConstraint=eastwest;fontSize=12;" vertex="1" parent="SKCPG1EAlzLYbSOb6UeY-24">
          <mxGeometry y="86" width="160" height="30" as="geometry" />
        </mxCell>
        <mxCell id="SKCPG1EAlzLYbSOb6UeY-30" value="prendre" style="ellipse;whiteSpace=wrap;html=1;align=center;" vertex="1" parent="1">
          <mxGeometry x="-190" y="98" width="100" height="40" as="geometry" />
        </mxCell>
        <mxCell id="SKCPG1EAlzLYbSOb6UeY-36" value="" style="endArrow=none;html=1;rounded=0;" edge="1" parent="1">
          <mxGeometry relative="1" as="geometry">
            <mxPoint x="-90" y="120" as="sourcePoint" />
            <mxPoint x="80" y="120" as="targetPoint" />
          </mxGeometry>
        </mxCell>
        <mxCell id="SKCPG1EAlzLYbSOb6UeY-37" value="" style="endArrow=none;html=1;rounded=0;entryX=0.5;entryY=0;entryDx=0;entryDy=0;exitX=0.5;exitY=1;exitDx=0;exitDy=0;" edge="1" parent="1" source="SKCPG1EAlzLYbSOb6UeY-30" target="SKCPG1EAlzLYbSOb6UeY-18">
          <mxGeometry relative="1" as="geometry">
            <mxPoint x="-150" y="150" as="sourcePoint" />
            <mxPoint x="10" y="150" as="targetPoint" />
          </mxGeometry>
        </mxCell>
        <mxCell id="SKCPG1EAlzLYbSOb6UeY-40" value="" style="endArrow=none;html=1;rounded=0;entryX=0.538;entryY=1.1;entryDx=0;entryDy=0;entryPerimeter=0;exitX=0.5;exitY=0;exitDx=0;exitDy=0;" edge="1" parent="1" source="SKCPG1EAlzLYbSOb6UeY-14" target="SKCPG1EAlzLYbSOb6UeY-5">
          <mxGeometry relative="1" as="geometry">
            <mxPoint x="10" y="220" as="sourcePoint" />
            <mxPoint x="170" y="220" as="targetPoint" />
          </mxGeometry>
        </mxCell>
        <mxCell id="SKCPG1EAlzLYbSOb6UeY-29" value="etre" style="ellipse;whiteSpace=wrap;html=1;align=center;" vertex="1" parent="1">
          <mxGeometry x="120" y="260" width="100" height="40" as="geometry" />
        </mxCell>
        <mxCell id="SKCPG1EAlzLYbSOb6UeY-41" value="" style="endArrow=none;html=1;rounded=0;entryX=-0.012;entryY=0.133;entryDx=0;entryDy=0;entryPerimeter=0;" edge="1" parent="1" target="SKCPG1EAlzLYbSOb6UeY-8">
          <mxGeometry relative="1" as="geometry">
            <mxPoint x="240" y="117.5" as="sourcePoint" />
            <mxPoint x="400" y="117.5" as="targetPoint" />
          </mxGeometry>
        </mxCell>
        <mxCell id="SKCPG1EAlzLYbSOb6UeY-31" value="faire" style="ellipse;whiteSpace=wrap;html=1;align=center;" vertex="1" parent="1">
          <mxGeometry x="360" y="98" width="100" height="40" as="geometry" />
        </mxCell>
        <mxCell id="SKCPG1EAlzLYbSOb6UeY-42" value="" style="endArrow=none;html=1;rounded=0;exitX=0.25;exitY=0;exitDx=0;exitDy=0;" edge="1" parent="1" source="SKCPG1EAlzLYbSOb6UeY-24">
          <mxGeometry relative="1" as="geometry">
            <mxPoint x="410" y="160" as="sourcePoint" />
            <mxPoint x="570" y="160" as="targetPoint" />
          </mxGeometry>
        </mxCell>
        <mxCell id="SKCPG1EAlzLYbSOb6UeY-33" value="avoir" style="ellipse;whiteSpace=wrap;html=1;align=center;" vertex="1" parent="1">
          <mxGeometry x="400" y="210" width="100" height="40" as="geometry" />
        </mxCell>
        <mxCell id="SKCPG1EAlzLYbSOb6UeY-43" value="" style="endArrow=none;html=1;rounded=0;entryX=0.5;entryY=0;entryDx=0;entryDy=0;exitX=0.5;exitY=1;exitDx=0;exitDy=0;" edge="1" parent="1" source="SKCPG1EAlzLYbSOb6UeY-6" target="SKCPG1EAlzLYbSOb6UeY-10">
          <mxGeometry relative="1" as="geometry">
            <mxPoint x="570" y="210" as="sourcePoint" />
            <mxPoint x="730" y="210" as="targetPoint" />
          </mxGeometry>
        </mxCell>
        <mxCell id="SKCPG1EAlzLYbSOb6UeY-32" value="assister" style="ellipse;whiteSpace=wrap;html=1;align=center;" vertex="1" parent="1">
          <mxGeometry x="600" y="230" width="100" height="40" as="geometry" />
        </mxCell>
        <mxCell id="SKCPG1EAlzLYbSOb6UeY-44" value="0,n" style="text;html=1;strokeColor=none;fillColor=none;align=center;verticalAlign=middle;whiteSpace=wrap;rounded=0;" vertex="1" parent="1">
          <mxGeometry x="500" y="70" width="60" height="30" as="geometry" />
        </mxCell>
        <mxCell id="SKCPG1EAlzLYbSOb6UeY-45" value="1,1" style="text;html=1;strokeColor=none;fillColor=none;align=center;verticalAlign=middle;whiteSpace=wrap;rounded=0;" vertex="1" parent="1">
          <mxGeometry x="250" y="68" width="60" height="30" as="geometry" />
        </mxCell>
        <mxCell id="SKCPG1EAlzLYbSOb6UeY-46" value="0,n" style="text;html=1;strokeColor=none;fillColor=none;align=center;verticalAlign=middle;whiteSpace=wrap;rounded=0;" vertex="1" parent="1">
          <mxGeometry x="660" y="176" width="60" height="30" as="geometry" />
        </mxCell>
        <mxCell id="SKCPG1EAlzLYbSOb6UeY-47" value="1,1" style="text;html=1;strokeColor=none;fillColor=none;align=center;verticalAlign=middle;whiteSpace=wrap;rounded=0;" vertex="1" parent="1">
          <mxGeometry x="660" y="300" width="60" height="30" as="geometry" />
        </mxCell>
        <mxCell id="SKCPG1EAlzLYbSOb6UeY-48" value="1,1" style="text;html=1;strokeColor=none;fillColor=none;align=center;verticalAlign=middle;whiteSpace=wrap;rounded=0;" vertex="1" parent="1">
          <mxGeometry x="170" y="186" width="60" height="30" as="geometry" />
        </mxCell>
        <mxCell id="SKCPG1EAlzLYbSOb6UeY-49" value="1,1" style="text;html=1;strokeColor=none;fillColor=none;align=center;verticalAlign=middle;whiteSpace=wrap;rounded=0;" vertex="1" parent="1">
          <mxGeometry x="180" y="315" width="60" height="30" as="geometry" />
        </mxCell>
        <mxCell id="SKCPG1EAlzLYbSOb6UeY-50" value="1,1" style="text;html=1;strokeColor=none;fillColor=none;align=center;verticalAlign=middle;whiteSpace=wrap;rounded=0;" vertex="1" parent="1">
          <mxGeometry x="10" y="80" width="60" height="30" as="geometry" />
        </mxCell>
        <mxCell id="SKCPG1EAlzLYbSOb6UeY-51" value="1,n" style="text;html=1;strokeColor=none;fillColor=none;align=center;verticalAlign=middle;whiteSpace=wrap;rounded=0;" vertex="1" parent="1">
          <mxGeometry x="-130" y="290" width="60" height="30" as="geometry" />
        </mxCell>
        <mxCell id="SKCPG1EAlzLYbSOb6UeY-52" value="0,n" style="text;html=1;strokeColor=none;fillColor=none;align=center;verticalAlign=middle;whiteSpace=wrap;rounded=0;" vertex="1" parent="1">
          <mxGeometry x="490" y="156" width="60" height="30" as="geometry" />
        </mxCell>
        <mxCell id="SKCPG1EAlzLYbSOb6UeY-53" value="1,1" style="text;html=1;strokeColor=none;fillColor=none;align=center;verticalAlign=middle;whiteSpace=wrap;rounded=0;" vertex="1" parent="1">
          <mxGeometry x="310" y="290" width="60" height="30" as="geometry" />
        </mxCell>
      </root>
    </mxGraphModel>
  </diagram>
</mxfile>
